<?xml version="1.0" encoding="UTF-8"?>
<svg width="92px" height="30px" viewBox="0 0 92 30" version="1.1" xmlns="http://www.w3.org/2000/svg" xmlns:xlink="http://www.w3.org/1999/xlink">
    <!-- Generator: Sketch 50 (54983) - http://www.bohemiancoding.com/sketch -->
    <title>bitso-logo.color</title>
    <desc>Created with Sketch.</desc>
    <defs></defs>
    <g id="Page-1" stroke="none" stroke-width="1" fill="none" fill-rule="evenodd">
        <g id="bitso-logo.color" transform="translate(-1.000000, -1.000000)">
            <path d="M34.79,7.89 C34.7841718,7.76657986 34.8768984,7.66060661 35,7.65 L41.34,7.65 C44.89,7.65 46.53,9.39 46.53,11.99 C46.6270494,13.4154929 45.8902089,14.7683164 44.64,15.46 C46.0551728,16.1259535 46.9196021,17.5891388 46.82,19.15 C46.82,22.36 44.69,23.9 41.18,23.9 L35,23.9 C34.9338369,23.9058503 34.868375,23.8828118 34.8204595,23.836813 C34.7725441,23.7908141 34.746854,23.7263467 34.75,23.66 L34.79,7.89 Z M40.94,14.31 C41.488045,14.3873232 42.0421885,14.2178994 42.4532936,13.8473258 C42.8643987,13.4767521 43.0902266,12.9431032 43.07,12.39 C43.07,11.2 42.28,10.51 40.94,10.51 L38.46,10.51 C38.36,10.51 38.31,10.51 38.31,10.65 L38.31,14.17 C38.31,14.27 38.31,14.31 38.46,14.31 L40.94,14.31 Z M38.46,21.09 L41.13,21.09 C41.7016412,21.1738869 42.2809262,20.9986192 42.7101821,20.6119021 C43.139438,20.2251851 43.3739913,19.6672652 43.35,19.09 C43.3534654,18.5191531 43.1128307,17.9740312 42.6887057,17.5919366 C42.2645808,17.2098421 41.6973921,17.0271952 41.13,17.09 L38.46,17.09 C38.4184451,17.082915 38.3760346,17.0964191 38.3462268,17.1262268 C38.3164191,17.1560346 38.302915,17.1984451 38.31,17.24 L38.31,21 C38.31,21 38.36,21.09 38.46,21.09 Z M48.43,7.87 C48.4271295,7.80551083 48.4514921,7.74278381 48.4971379,7.69713793 C48.5427838,7.65149205 48.6055108,7.62712949 48.67,7.63 L51.67,7.63 C51.7344892,7.62712949 51.7972162,7.65149205 51.8428621,7.69713793 C51.8885079,7.74278381 51.9128705,7.80551083 51.91,7.87 L51.91,23.69 C51.9128705,23.7544892 51.8885079,23.8172162 51.8428621,23.8628621 C51.7972162,23.9085079 51.7344892,23.9328705 51.67,23.93 L48.67,23.93 C48.6055108,23.9328705 48.5427838,23.9085079 48.4971379,23.8628621 C48.4514921,23.8172162 48.4271295,23.7544892 48.43,23.69 L48.43,7.87 Z M58.14,24 C58.0755108,24.0028705 58.0127838,23.9785079 57.9671379,23.9328621 C57.9214921,23.8872162 57.8971295,23.8244892 57.9,23.76 L57.9,10.94 C57.9072709,10.9010892 57.8948848,10.8610958 57.8668945,10.8331055 C57.8389042,10.8051152 57.7989108,10.7927291 57.76,10.8 L53.64,10.8 C53.5736533,10.803146 53.5091859,10.7774559 53.463187,10.7295405 C53.4171882,10.681625 53.3941497,10.6161631 53.4,10.55 L53.4,7.89 C53.3971295,7.82551083 53.4214921,7.76278381 53.4671379,7.71713793 C53.5127838,7.67149205 53.5755108,7.64712949 53.64,7.65 L65.7,7.65 C65.7644892,7.64712949 65.8272162,7.67149205 65.8728621,7.71713793 C65.9185079,7.76278381 65.9428705,7.82551083 65.94,7.89 L65.94,10.55 C65.9458503,10.6161631 65.9228118,10.681625 65.876813,10.7295405 C65.8308141,10.7774559 65.7663467,10.803146 65.7,10.8 L61.58,10.8 C61.48,10.8 61.44,10.8 61.44,10.94 L61.44,23.71 C61.443146,23.7763467 61.4174559,23.8408141 61.3695405,23.886813 C61.321625,23.9328118 61.2561631,23.9558503 61.19,23.95 L58.14,24 Z M66.31,22 C66.2562491,21.9473351 66.2259592,21.8752513 66.2259592,21.8 C66.2259592,21.7247487 66.2562491,21.6526649 66.31,21.6 L68.13,19.51 C68.1755599,19.4583399 68.2411199,19.4287451 68.31,19.4287451 C68.3788801,19.4287451 68.4444401,19.4583399 68.49,19.51 C69.6814874,20.5317703 71.1818076,21.1234459 72.75,21.19 C74.44,21.19 75.41,20.4 75.41,19.25 C75.41,18.3 74.83,17.7 72.89,17.43 L72,17.28 C68.69,16.83 66.85,15.28 66.85,12.39 C66.85,9.5 69.11,7.39 72.63,7.39 C74.6124026,7.35014795 76.5549423,7.94974055 78.17,9.1 C78.32,9.2 78.33,9.29 78.17,9.46 L76.7,11.64 C76.6636008,11.69397 76.6068395,11.7308389 76.5427327,11.7421518 C76.4786259,11.7534648 76.4126736,11.7382513 76.36,11.7 C75.2515149,10.9121494 73.9298011,10.4797153 72.57,10.46 C71.13,10.46 70.39,11.2 70.39,12.23 C70.39,13.26 71.12,13.77 73,14 L73.85,14.12 C77.21,14.57 78.98,16.12 78.98,19.05 C78.98,21.98 76.8,24.19 72.59,24.19 C70.3014535,24.2387473 68.0719652,23.4612665 66.31,22 Z M80.69,20.25 C80.2873756,18.8031736 80.1351813,17.2981409 80.24,15.8 C80.1354112,14.2985624 80.2875919,12.7902832 80.69,11.34 C81.53,8.71 83.79,7.39 86.63,7.39 C89.47,7.39 91.73,8.71 92.57,11.39 C92.9550594,12.8263173 93.1003463,14.3163529 93,15.8 C93.0996045,17.2980558 92.9474987,18.8022131 92.55,20.25 C91.71,22.88 89.45,24.25 86.61,24.25 C83.77,24.25 81.53,22.88 80.69,20.25 Z M89.19,19.3 C89.4515482,18.1529513 89.539194,16.9731039 89.45,15.8 C89.539194,14.6268961 89.4515482,13.4470487 89.19,12.3 C88.8735698,11.1685887 87.8012843,10.4188266 86.63,10.51 C85.4583555,10.4257682 84.3872042,11.171823 84.06,12.3 C83.8039792,13.4478727 83.7163945,14.6268979 83.8,15.8 C83.7163945,16.9731021 83.8039792,18.1521273 84.06,19.3 C84.4528165,20.3779588 85.4776988,21.0952942 86.625,21.0952942 C87.7723012,21.0952942 88.7971835,20.3779588 89.19,19.3 Z" id="Shape" fill="#353738" fill-rule="nonzero"></path>
            <path d="M15.67,1.68 C14.5292835,1.67838305 13.3920477,1.8058608 12.28,2.06 C12.1641926,2.08153952 12.060695,2.14577937 11.99,2.24 C11.9287188,2.33213523 11.89411,2.43942245 11.89,2.55 L11.89,11.23 C11.89,11.23 11.89,11.41 11.97,11.47 C12.05,11.53 12.14,11.54 12.26,11.47 C14.0880972,10.2126027 16.4608786,10.0667114 18.4292465,11.0906815 C20.3976145,12.1146516 21.640209,14.1413077 21.66,16.36 L21.66,29.39 C21.6485304,29.4592795 21.6708228,29.5298721 21.72,29.58 C21.7843694,29.6197061 21.8656306,29.6197061 21.93,29.58 C28.113872,26.6402413 31.4391866,19.8114225 29.9401587,13.1304518 C28.4411309,6.44948117 22.5170576,1.69597303 15.67,1.68 Z" id="Path" fill="#A5C88F"></path>
            <path d="M19.41,21.14 C19.35,21.09 19.28,21.08 19.19,21.14 C17.3716502,22.4404998 14.981068,22.6222322 12.987022,21.6115513 C10.9929759,20.6008704 9.72618175,18.5653993 9.7,16.33 L9.7,1.4 C9.70397222,1.27549952 9.648234,1.15659131 9.55,1.08 C9.4619496,1.02011944 9.3561751,0.991912911 9.25,1 L1.45,1 C1.33392324,0.999181044 1.22103997,1.03798467 1.13,1.11 C1.04083245,1.18750598 0.992786834,1.3020763 1,1.42 L1,16.35 C0.995531863,20.851549 3.06224274,25.1048841 6.60406203,27.8832793 C10.1458813,30.6616745 14.7689849,31.6561927 19.14,30.58 C19.227228,30.5489973 19.3036299,30.4934323 19.36,30.42 C19.4184004,30.3228456 19.4526896,30.2131201 19.46,30.1 L19.46,21.35 C19.46,21.35 19.48,21.2 19.41,21.14 Z" id="Shape" fill="#5C4B51" fill-rule="nonzero"></path>
        </g>
    </g>
</svg>