<svg xmlns="http://www.w3.org/2000/svg" width="94" height="32" viewBox="0 0 94 32">
    <g fill="#CCC" fill-rule="nonzero">
        <path d="M34.79 7.89a.23.23 0 0 1 .21-.24h6.34c3.55 0 5.19 1.74 5.19 4.34a3.68 3.68 0 0 1-1.89 3.47 3.81 3.81 0 0 1 2.18 3.69c0 3.21-2.13 4.75-5.64 4.75H35a.23.23 0 0 1-.25-.24l.04-15.77zm6.15 6.42a1.87 1.87 0 0 0 2.13-1.92c0-1.19-.79-1.88-2.13-1.88h-2.48c-.1 0-.15 0-.15.14v3.52c0 .1 0 .14.15.14h2.48zm-2.48 6.78h2.67a1.94 1.94 0 0 0 2.22-2 2 2 0 0 0-2.22-2h-2.67a.13.13 0 0 0-.15.15V21s.05.09.15.09zM48.43 7.87a.23.23 0 0 1 .24-.24h3a.23.23 0 0 1 .24.24v15.82a.23.23 0 0 1-.24.24h-3a.23.23 0 0 1-.24-.24V7.87zM58.14 24a.23.23 0 0 1-.24-.24V10.94a.12.12 0 0 0-.14-.14h-4.12a.23.23 0 0 1-.24-.25V7.89a.23.23 0 0 1 .24-.24H65.7a.23.23 0 0 1 .24.24v2.66a.23.23 0 0 1-.24.25h-4.12c-.1 0-.14 0-.14.14v12.77a.23.23 0 0 1-.25.24l-3.05.05zM66.31 22a.28.28 0 0 1 0-.4l1.82-2.09a.24.24 0 0 1 .36 0 7 7 0 0 0 4.26 1.68c1.69 0 2.66-.79 2.66-1.94 0-.95-.58-1.55-2.52-1.82l-.89-.15c-3.31-.45-5.15-2-5.15-4.89 0-2.89 2.26-5 5.78-5a9.23 9.23 0 0 1 5.54 1.71c.15.1.16.19 0 .36l-1.47 2.18a.24.24 0 0 1-.34.06 6.71 6.71 0 0 0-3.79-1.24c-1.44 0-2.18.74-2.18 1.77S71.12 13.77 73 14l.85.12c3.36.45 5.13 2 5.13 4.93 0 2.93-2.18 5.14-6.39 5.14A9.52 9.52 0 0 1 66.31 22zM80.69 20.25a13.17 13.17 0 0 1-.45-4.45 13.24 13.24 0 0 1 .45-4.46c.84-2.63 3.1-3.95 5.94-3.95 2.84 0 5.1 1.32 5.94 4A13.51 13.51 0 0 1 93 15.8a13.44 13.44 0 0 1-.45 4.45c-.84 2.63-3.1 4-5.94 4-2.84 0-5.08-1.37-5.92-4zm8.5-.95a11.74 11.74 0 0 0 .26-3.5 11.74 11.74 0 0 0-.26-3.5 2.46 2.46 0 0 0-2.56-1.79 2.49 2.49 0 0 0-2.57 1.79 12.12 12.12 0 0 0-.26 3.5 12.12 12.12 0 0 0 .26 3.5 2.73 2.73 0 0 0 5.13 0zM15.67 1.68a15.12 15.12 0 0 0-3.39.38.47.47 0 0 0-.29.18.6.6 0 0 0-.1.31v8.68s0 .18.08.24.17.07.29 0a6 6 0 0 1 9.4 4.89v13.03a.22.22 0 0 0 .06.19.2.2 0 0 0 .21 0 14.66 14.66 0 0 0-6.26-27.9z"/>
        <path d="M19.41 21.14c-.06-.05-.13-.06-.22 0a6 6 0 0 1-9.49-4.81V1.4a.39.39 0 0 0-.15-.32.47.47 0 0 0-.3-.08h-7.8a.51.51 0 0 0-.32.11.38.38 0 0 0-.13.31v14.93a14.64 14.64 0 0 0 18.14 14.23.48.48 0 0 0 .22-.16.71.71 0 0 0 .1-.32v-8.75s.02-.15-.05-.21z"/>
    </g>
</svg>
