<?xml version="1.0" encoding="utf-8"?>
<!-- Generator: Adobe Illustrator 16.0.0, SVG Export Plug-In . SVG Version: 6.00 Build 0)  -->
<!DOCTYPE svg PUBLIC "-//W3C//DTD SVG 1.1//EN" "http://www.w3.org/Graphics/SVG/1.1/DTD/svg11.dtd">
<svg version="1.1" id="Layer_1" xmlns="http://www.w3.org/2000/svg" xmlns:xlink="http://www.w3.org/1999/xlink" x="0px" y="0px"
	 width="16.002px" height="5.217px" viewBox="0 5.392 16.002 5.217" enable-background="new 0 5.392 16.002 5.217"
	 xml:space="preserve">
<title>bitso_logo</title>
<g id="Capa_2">
	<g id="Capa_1-2">
		<path fill="#303133" d="M5.875,6.59C5.874,6.568,5.89,6.55,5.912,6.548h1.103c0.617,0,0.902,0.302,0.902,0.754
			c0.017,0.248-0.111,0.483-0.329,0.604l0,0c0.246,0.116,0.396,0.37,0.379,0.642c0,0.558-0.37,0.825-0.98,0.825H5.912
			C5.89,9.375,5.87,9.359,5.868,9.338c0-0.002,0-0.004,0-0.006L5.875,6.59z M6.944,7.706C7.123,7.731,7.287,7.607,7.312,7.43
			c0.002-0.019,0.003-0.038,0.003-0.058c0-0.207-0.137-0.327-0.371-0.327H6.513c-0.017,0-0.026,0-0.026,0.024v0.612
			c0,0.018,0,0.024,0.026,0.024H6.944z M6.513,8.885h0.464C7.162,8.912,7.333,8.785,7.36,8.6c0.003-0.02,0.004-0.041,0.003-0.062
			c0.001-0.192-0.154-0.349-0.346-0.35c-0.014,0-0.027,0-0.041,0.002H6.513C6.501,8.188,6.489,8.196,6.487,8.208
			c0,0.002,0,0.005,0,0.008v0.653C6.487,8.869,6.496,8.885,6.513,8.885z"/>
		<path fill="#303133" d="M8.247,6.586C8.246,6.564,8.263,6.546,8.285,6.545c0.001,0,0.002,0,0.003,0h0.522
			c0.021-0.001,0.041,0.016,0.041,0.038c0,0.001,0,0.002,0,0.003v2.75c0.002,0.022-0.016,0.041-0.037,0.042
			c-0.002,0-0.003,0-0.004,0H8.289C8.267,9.38,8.248,9.363,8.247,9.341c0-0.001,0-0.003,0-0.004V6.586z"/>
		<path fill="#303133" d="M9.936,9.391C9.913,9.393,9.895,9.375,9.894,9.354c0-0.002,0-0.003,0-0.004V7.12
			c0.002-0.011-0.005-0.022-0.017-0.024c-0.002,0-0.006,0-0.008,0H9.152C9.131,7.097,9.111,7.08,9.111,7.058
			c0-0.001,0-0.003,0-0.005V6.59C9.109,6.568,9.127,6.549,9.149,6.548c0.001,0,0.002,0,0.003,0h2.098
			c0.021-0.001,0.041,0.016,0.041,0.038c0,0.001,0,0.002,0,0.003v0.462c0.002,0.022-0.014,0.042-0.035,0.043
			c-0.002,0-0.004,0-0.006,0h-0.717c-0.018,0-0.024,0-0.024,0.024v2.221c0.001,0.022-0.016,0.04-0.038,0.042
			c-0.002,0-0.004,0-0.006,0L9.936,9.391z"/>
		<path fill="#303133" d="M11.355,9.043c-0.02-0.019-0.02-0.049,0-0.068c0,0,0,0,0-0.001l0.316-0.363
			c0.016-0.018,0.042-0.019,0.059-0.004c0.002,0.001,0.004,0.003,0.004,0.004c0.207,0.178,0.469,0.28,0.741,0.292
			c0.294,0,0.462-0.137,0.462-0.338c0-0.165-0.1-0.269-0.438-0.316l-0.154-0.026c-0.576-0.078-0.896-0.348-0.896-0.851
			c0-0.502,0.394-0.869,1.006-0.869C12.799,6.496,13.137,6.6,13.418,6.8c0.025,0.018,0.027,0.033,0,0.062l-0.256,0.379
			c-0.013,0.02-0.039,0.024-0.058,0.011c-0.001,0-0.001,0-0.001,0c-0.193-0.137-0.423-0.212-0.659-0.216
			c-0.251,0-0.379,0.129-0.379,0.308c0,0.179,0.127,0.268,0.454,0.308l0.147,0.021c0.584,0.078,0.892,0.348,0.892,0.857
			c0,0.509-0.379,0.894-1.111,0.894C12.05,9.433,11.662,9.297,11.355,9.043z"/>
		<path fill="#303133" d="M13.855,8.738c-0.069-0.251-0.096-0.513-0.078-0.773c-0.018-0.261,0.009-0.523,0.078-0.775
			c0.146-0.458,0.539-0.687,1.033-0.687s0.887,0.229,1.033,0.695c0.066,0.25,0.092,0.509,0.074,0.767
			c0.018,0.26-0.009,0.522-0.078,0.773c-0.146,0.458-0.539,0.696-1.033,0.696C14.392,9.435,14.002,9.196,13.855,8.738z
			 M15.334,8.574c0.045-0.2,0.061-0.405,0.045-0.609c0.016-0.204,0-0.409-0.045-0.609c-0.055-0.196-0.241-0.327-0.445-0.311
			c-0.203-0.015-0.39,0.115-0.447,0.311c-0.044,0.2-0.059,0.405-0.045,0.609c-0.014,0.204,0.001,0.409,0.045,0.609
			c0.09,0.246,0.363,0.373,0.609,0.283C15.182,8.809,15.286,8.705,15.334,8.574z"/>
		<path fill="#AACC90" d="M2.551,5.51c-0.198,0-0.396,0.022-0.589,0.066c-0.02,0.004-0.038,0.015-0.05,0.031
			C1.9,5.624,1.894,5.642,1.894,5.661V7.17c0,0,0,0.032,0.014,0.042c0.014,0.01,0.03,0.012,0.051,0
			C2.433,6.886,3.082,7.006,3.409,7.48C3.526,7.652,3.59,7.854,3.592,8.062v2.266c-0.002,0.012,0.002,0.024,0.01,0.033
			c0.011,0.007,0.025,0.007,0.037,0c1.271-0.604,1.812-2.125,1.208-3.396C4.425,6.078,3.532,5.512,2.551,5.51z"/>
		<path fill="#5C4B51" d="M3.201,8.894c-0.011-0.009-0.023-0.011-0.039,0c-0.468,0.335-1.12,0.228-1.455-0.241
			C1.583,8.479,1.515,8.271,1.513,8.058V5.461c0-0.021-0.009-0.042-0.026-0.056c-0.016-0.01-0.034-0.015-0.052-0.014H0.078
			c-0.02,0-0.04,0.006-0.056,0.019C0.007,5.424-0.001,5.444,0,5.465c0,0.374,0,2.118,0,2.596c-0.001,1.406,1.137,2.546,2.543,2.548
			c0.206,0,0.411-0.025,0.611-0.074c0.015-0.006,0.028-0.016,0.038-0.027c0.01-0.018,0.016-0.037,0.018-0.057V8.93
			C3.21,8.93,3.213,8.904,3.201,8.894z"/>
	</g>
</g>
</svg>
