<?xml version="1.0" encoding="utf-8"?>
<!-- Generator: Adobe Illustrator 22.0.0, SVG Export Plug-In . SVG Version: 6.00 Build 0)  -->
<svg version="1.1" id="Layer_1" xmlns="http://www.w3.org/2000/svg" xmlns:xlink="http://www.w3.org/1999/xlink" x="0px" y="0px"
	 viewBox="0 0 93 31" style="enable-background:new 0 0 93 31;" xml:space="preserve">
<style type="text/css">
	.st0{fill:#353738;}
	.st1{fill:#A5C88F;}
	.st2{fill:#5C4B51;}
</style>
<g>
	<g>
		<g>
			<path class="st0" d="M34.3,7.3c0-0.1,0.1-0.2,0.2-0.2h6.4c3.6,0,5.2,1.8,5.2,4.5c0,1.8-0.8,2.9-1.9,3.6v0.1
				c1.1,0.4,2.2,1.8,2.2,3.8c0,3.3-2.2,4.9-5.7,4.9h-6.2c-0.1,0-0.2-0.1-0.2-0.2V7.3z M40.5,14c1.4,0,2.2-0.7,2.2-2
				c0-1.3-0.8-1.9-2.2-1.9H38c-0.1,0-0.1,0.1-0.1,0.1v3.6c0,0.1,0.1,0.1,0.1,0.1L40.5,14L40.5,14z M38,20.9h2.7
				c1.5,0,2.2-0.8,2.2-2.1c0-1.3-0.8-2.1-2.2-2.1H38c-0.1,0-0.1,0.1-0.1,0.1v3.9C37.8,20.9,37.9,20.9,38,20.9"/>
			<path class="st0" d="M48.1,7.3c0-0.1,0.1-0.2,0.2-0.2h3.1c0.1,0,0.2,0.1,0.2,0.2v16.3c0,0.1-0.1,0.2-0.2,0.2h-3.1
				c-0.1,0-0.2-0.1-0.2-0.2V7.3z"/>
			<path class="st0" d="M57.9,23.9c-0.1,0-0.2-0.1-0.2-0.2V10.5c0-0.1-0.1-0.1-0.1-0.1h-4.2c-0.1,0-0.2-0.1-0.2-0.2V7.3
				c0-0.1,0.1-0.2,0.2-0.2h12.2c0.1,0,0.2,0.1,0.2,0.2v2.8c0,0.1-0.1,0.2-0.2,0.2h-4.2c-0.1,0-0.1,0.1-0.1,0.1v13.2
				c0,0.1-0.1,0.2-0.2,0.2H57.9z"/>
			<path class="st0" d="M66.1,21.9c-0.1-0.1-0.1-0.2-0.1-0.4l1.8-2.2c0.1-0.1,0.2-0.1,0.4,0c1.1,0.9,2.6,1.7,4.3,1.7s2.7-0.8,2.7-2
				c0-1-0.6-1.6-2.5-1.9l-0.9-0.1c-3.4-0.5-5.2-2.1-5.2-5c0-3.1,2.3-5.2,5.8-5.2c2.2,0,4.2,0.7,5.6,1.7c0.1,0.1,0.2,0.2,0.1,0.4
				l-1.5,2.2c-0.1,0.1-0.2,0.1-0.4,0.1c-1.2-0.8-2.5-1.3-3.8-1.3c-1.5,0-2.2,0.8-2.2,1.8c0,1,0.7,1.6,2.6,1.9l0.9,0.1
				c3.4,0.5,5.2,2,5.2,5.1s-2.2,5.3-6.5,5.3C69.9,24.2,67.4,23.1,66.1,21.9"/>
			<path class="st0" d="M80.7,20.1c-0.4-1.1-0.5-2.1-0.5-4.6s0.1-3.4,0.5-4.6c0.8-2.7,3.1-4.1,6-4.1c2.9,0,5.2,1.4,6,4.1
				c0.4,1.1,0.5,2.1,0.5,4.6s-0.1,3.4-0.5,4.6c-0.8,2.7-3.1,4.1-6,4.1C83.8,24.2,81.6,22.8,80.7,20.1 M89.3,19.1
				c0.2-0.6,0.2-1.4,0.2-3.6s-0.1-3-0.2-3.6c-0.4-1.1-1.2-1.9-2.6-1.9c-1.4,0-2.2,0.7-2.6,1.9c-0.2,0.6-0.2,1.4-0.2,3.6
				s0.1,3,0.2,3.6c0.4,1.1,1.2,1.9,2.6,1.9C88,20.9,88.9,20.3,89.3,19.1"/>
			<path class="st1" d="M15,0.9c-1.2,0-2.4,0.1-3.4,0.4c-0.2,0-0.2,0.1-0.3,0.2c-0.1,0.1-0.1,0.2-0.1,0.3v9c0,0,0,0.2,0.1,0.2
				s0.2,0.1,0.3-0.1c1-0.7,2.2-1.1,3.5-1.1c3.4,0,6.1,2.8,6.1,6.2v0.1v13.3c0,0,0,0.1,0.1,0.2c0.1,0.1,0.1,0.1,0.2,0
				c5-2.4,8.5-7.6,8.5-13.7C29.8,7.7,23.2,0.9,15,0.9"/>
			<path class="st2" d="M18.8,21c-0.1-0.1-0.1-0.1-0.2,0c-1,0.7-2.2,1.2-3.5,1.2c-3.4,0-6.1-2.8-6.1-6.2V0.6c0-0.1-0.1-0.2-0.1-0.4
				C8.7,0.2,8.6,0.2,8.5,0.2H0.6c-0.2,0-0.3,0.1-0.4,0.1C0.2,0.4,0.2,0.5,0.2,0.7c0,2.2,0,12.6,0,15.4c0,8.4,6.7,15.1,14.8,15.1
				c1.2,0,2.4-0.1,3.5-0.4c0.1-0.1,0.2-0.1,0.2-0.2c0.1-0.1,0.1-0.2,0.1-0.4v-9C18.8,21.2,18.8,21,18.8,21"/>
		</g>
	</g>
</g>
</svg>
